<mxfile host="app.diagrams.net" modified="2024-04-18T20:13:40.796Z" agent="Mozilla/5.0 (Windows NT 10.0; Win64; x64) AppleWebKit/537.36 (KHTML, like Gecko) Chrome/123.0.0.0 Safari/537.36 Edg/123.0.0.0" etag="SHvwWuY1OCA_rVdKuLdU" version="24.2.5" type="github">
  <diagram name="Page-1" id="KsSnnf27GOVE21dlFr1F">
    <mxGraphModel dx="872" dy="473" grid="1" gridSize="10" guides="1" tooltips="1" connect="1" arrows="1" fold="1" page="1" pageScale="1" pageWidth="827" pageHeight="1169" math="0" shadow="0">
      <root>
        <mxCell id="0" />
        <mxCell id="1" parent="0" />
        <mxCell id="4UgzBT1yydRRqsdcBIVN-12" style="edgeStyle=orthogonalEdgeStyle;rounded=0;orthogonalLoop=1;jettySize=auto;html=1;entryX=0;entryY=0.5;entryDx=0;entryDy=0;" edge="1" parent="1" source="4UgzBT1yydRRqsdcBIVN-1" target="4UgzBT1yydRRqsdcBIVN-7">
          <mxGeometry relative="1" as="geometry">
            <Array as="points">
              <mxPoint x="105" y="120" />
            </Array>
          </mxGeometry>
        </mxCell>
        <mxCell id="4UgzBT1yydRRqsdcBIVN-15" style="rounded=0;orthogonalLoop=1;jettySize=auto;html=1;endArrow=none;endFill=0;" edge="1" parent="1" source="4UgzBT1yydRRqsdcBIVN-1" target="4UgzBT1yydRRqsdcBIVN-14">
          <mxGeometry relative="1" as="geometry" />
        </mxCell>
        <mxCell id="4UgzBT1yydRRqsdcBIVN-21" style="edgeStyle=orthogonalEdgeStyle;rounded=0;orthogonalLoop=1;jettySize=auto;html=1;entryX=0.5;entryY=1;entryDx=0;entryDy=0;" edge="1" parent="1" source="4UgzBT1yydRRqsdcBIVN-1" target="4UgzBT1yydRRqsdcBIVN-19">
          <mxGeometry relative="1" as="geometry">
            <Array as="points">
              <mxPoint x="105" y="540" />
              <mxPoint x="740" y="540" />
            </Array>
          </mxGeometry>
        </mxCell>
        <mxCell id="4UgzBT1yydRRqsdcBIVN-1" value="Usuário" style="shape=umlActor;verticalLabelPosition=bottom;verticalAlign=top;html=1;outlineConnect=0;" vertex="1" parent="1">
          <mxGeometry x="90" y="230" width="30" height="60" as="geometry" />
        </mxCell>
        <mxCell id="4UgzBT1yydRRqsdcBIVN-8" style="rounded=0;orthogonalLoop=1;jettySize=auto;html=1;endArrow=none;endFill=0;" edge="1" parent="1" source="4UgzBT1yydRRqsdcBIVN-2" target="4UgzBT1yydRRqsdcBIVN-5">
          <mxGeometry relative="1" as="geometry" />
        </mxCell>
        <mxCell id="4UgzBT1yydRRqsdcBIVN-9" style="rounded=0;orthogonalLoop=1;jettySize=auto;html=1;endArrow=none;endFill=0;" edge="1" parent="1" source="4UgzBT1yydRRqsdcBIVN-2" target="4UgzBT1yydRRqsdcBIVN-4">
          <mxGeometry relative="1" as="geometry" />
        </mxCell>
        <mxCell id="4UgzBT1yydRRqsdcBIVN-10" style="rounded=0;orthogonalLoop=1;jettySize=auto;html=1;endArrow=none;endFill=0;" edge="1" parent="1" source="4UgzBT1yydRRqsdcBIVN-2" target="4UgzBT1yydRRqsdcBIVN-6">
          <mxGeometry relative="1" as="geometry" />
        </mxCell>
        <mxCell id="4UgzBT1yydRRqsdcBIVN-16" style="rounded=0;orthogonalLoop=1;jettySize=auto;html=1;endArrow=none;endFill=0;" edge="1" parent="1" source="4UgzBT1yydRRqsdcBIVN-2" target="4UgzBT1yydRRqsdcBIVN-14">
          <mxGeometry relative="1" as="geometry" />
        </mxCell>
        <mxCell id="4UgzBT1yydRRqsdcBIVN-20" style="rounded=0;orthogonalLoop=1;jettySize=auto;html=1;entryX=0.5;entryY=0;entryDx=0;entryDy=0;endArrow=none;endFill=0;" edge="1" parent="1" source="4UgzBT1yydRRqsdcBIVN-2" target="4UgzBT1yydRRqsdcBIVN-19">
          <mxGeometry relative="1" as="geometry" />
        </mxCell>
        <mxCell id="4UgzBT1yydRRqsdcBIVN-2" value="Funcionário" style="shape=umlActor;verticalLabelPosition=bottom;verticalAlign=top;html=1;outlineConnect=0;" vertex="1" parent="1">
          <mxGeometry x="710" y="240" width="30" height="60" as="geometry" />
        </mxCell>
        <mxCell id="4UgzBT1yydRRqsdcBIVN-4" value="Manter Livros" style="ellipse;whiteSpace=wrap;html=1;" vertex="1" parent="1">
          <mxGeometry x="665" y="60" width="120" height="80" as="geometry" />
        </mxCell>
        <mxCell id="4UgzBT1yydRRqsdcBIVN-5" value="Manter categorias" style="ellipse;whiteSpace=wrap;html=1;" vertex="1" parent="1">
          <mxGeometry x="500" y="170" width="120" height="80" as="geometry" />
        </mxCell>
        <mxCell id="4UgzBT1yydRRqsdcBIVN-6" value="Manter Autores" style="ellipse;whiteSpace=wrap;html=1;" vertex="1" parent="1">
          <mxGeometry x="560" y="350" width="120" height="80" as="geometry" />
        </mxCell>
        <mxCell id="4UgzBT1yydRRqsdcBIVN-7" value="Manter usuários" style="ellipse;whiteSpace=wrap;html=1;" vertex="1" parent="1">
          <mxGeometry x="500" y="80" width="120" height="80" as="geometry" />
        </mxCell>
        <mxCell id="4UgzBT1yydRRqsdcBIVN-11" style="rounded=0;orthogonalLoop=1;jettySize=auto;html=1;entryX=0.967;entryY=0.65;entryDx=0;entryDy=0;entryPerimeter=0;endArrow=none;endFill=0;" edge="1" parent="1" source="4UgzBT1yydRRqsdcBIVN-2" target="4UgzBT1yydRRqsdcBIVN-7">
          <mxGeometry relative="1" as="geometry" />
        </mxCell>
        <mxCell id="4UgzBT1yydRRqsdcBIVN-13" value="Realizar Reserva" style="ellipse;whiteSpace=wrap;html=1;" vertex="1" parent="1">
          <mxGeometry x="390" y="420" width="120" height="80" as="geometry" />
        </mxCell>
        <mxCell id="4UgzBT1yydRRqsdcBIVN-14" value="Consulta de livros" style="ellipse;whiteSpace=wrap;html=1;" vertex="1" parent="1">
          <mxGeometry x="270" y="250" width="120" height="80" as="geometry" />
        </mxCell>
        <mxCell id="4UgzBT1yydRRqsdcBIVN-17" style="rounded=0;orthogonalLoop=1;jettySize=auto;html=1;entryX=0.558;entryY=1.038;entryDx=0;entryDy=0;entryPerimeter=0;dashed=1;dashPattern=8 8;endArrow=open;endFill=0;" edge="1" parent="1" source="4UgzBT1yydRRqsdcBIVN-13" target="4UgzBT1yydRRqsdcBIVN-14">
          <mxGeometry relative="1" as="geometry" />
        </mxCell>
        <mxCell id="4UgzBT1yydRRqsdcBIVN-18" value="&amp;lt;&amp;lt;extends&amp;gt;&amp;gt;" style="edgeLabel;html=1;align=center;verticalAlign=middle;resizable=0;points=[];" vertex="1" connectable="0" parent="4UgzBT1yydRRqsdcBIVN-17">
          <mxGeometry x="0.23" y="-3" relative="1" as="geometry">
            <mxPoint as="offset" />
          </mxGeometry>
        </mxCell>
        <mxCell id="4UgzBT1yydRRqsdcBIVN-19" value="Realizar devoluções" style="ellipse;whiteSpace=wrap;html=1;" vertex="1" parent="1">
          <mxGeometry x="680" y="440" width="120" height="80" as="geometry" />
        </mxCell>
        <mxCell id="4UgzBT1yydRRqsdcBIVN-22" value="Ver detalhes do livro" style="ellipse;whiteSpace=wrap;html=1;" vertex="1" parent="1">
          <mxGeometry x="160" y="420" width="120" height="80" as="geometry" />
        </mxCell>
        <mxCell id="4UgzBT1yydRRqsdcBIVN-23" style="rounded=0;orthogonalLoop=1;jettySize=auto;html=1;entryX=0.242;entryY=0.925;entryDx=0;entryDy=0;entryPerimeter=0;dashed=1;dashPattern=8 8;endArrow=open;endFill=0;" edge="1" parent="1" source="4UgzBT1yydRRqsdcBIVN-22" target="4UgzBT1yydRRqsdcBIVN-14">
          <mxGeometry relative="1" as="geometry" />
        </mxCell>
        <mxCell id="4UgzBT1yydRRqsdcBIVN-24" value="&amp;lt;&amp;lt;extends&amp;gt;&amp;gt;" style="edgeLabel;html=1;align=center;verticalAlign=middle;resizable=0;points=[];" vertex="1" connectable="0" parent="4UgzBT1yydRRqsdcBIVN-23">
          <mxGeometry x="-0.1958" y="2" relative="1" as="geometry">
            <mxPoint as="offset" />
          </mxGeometry>
        </mxCell>
      </root>
    </mxGraphModel>
  </diagram>
</mxfile>
